<svg width="75" height="23" viewBox="0 0 75 23" fill="none" xmlns="http://www.w3.org/2000/svg">
<path d="M2.856 8.352L2.88 5.76V4.656C2.88 3.952 2.848 3.392 2.784 2.976C2.736 2.544 2.52 2.224 2.136 2.016C1.768 1.808 1.4 1.696 1.032 1.68C0.664 1.664 0.48 1.544 0.48 1.32C0.48 1.08 0.704 0.959999 1.152 0.959999L3.864 1.056L5.976 1.008C6.408 1.008 6.624 1.12 6.624 1.344C6.624 1.472 6.256 1.688 5.52 1.992C5.008 2.2 4.752 3.12 4.752 4.752L4.68 13.632C4.68 14.976 4.864 15.92 5.232 16.464C5.616 17.008 6.016 17.28 6.432 17.28L6.912 17.304C7.024 17.304 7.136 17.336 7.248 17.4C7.36 17.448 7.416 17.536 7.416 17.664C7.416 17.888 7.216 18 6.816 18L4.536 17.904L1.896 18.024C1.176 18.024 0.816 17.904 0.816 17.664C0.816 17.44 1.064 17.296 1.56 17.232C1.752 17.216 1.952 17.12 2.16 16.944C2.368 16.752 2.496 16.544 2.544 16.32C2.608 16.08 2.672 15.112 2.736 13.416C2.816 11.704 2.856 10.472 2.856 9.72V8.352ZM11.259 22.752C10.635 22.624 10.067 22.352 9.555 21.936C9.059 21.52 8.811 21.04 8.811 20.496C8.811 19.952 8.955 19.528 9.243 19.224C9.531 18.936 9.819 18.72 10.107 18.576C10.395 18.432 10.539 18.336 10.539 18.288C10.539 18.256 10.499 18.208 10.419 18.144C10.339 18.08 10.243 18.008 10.131 17.928C9.875 17.72 9.747 17.376 9.747 16.896C9.747 16.4 9.851 15.976 10.059 15.624C10.267 15.272 10.475 15.008 10.683 14.832C10.891 14.656 10.995 14.544 10.995 14.496C10.995 14.432 10.907 14.328 10.731 14.184C10.571 14.04 10.387 13.88 10.179 13.704C9.971 13.512 9.779 13.208 9.603 12.792C9.443 12.36 9.363 11.912 9.363 11.448C9.363 10.968 9.419 10.544 9.531 10.176C9.659 9.792 9.859 9.4 10.131 9C10.419 8.584 10.851 8.248 11.427 7.992C12.019 7.736 12.667 7.608 13.371 7.608C14.091 7.608 14.675 7.688 15.123 7.848C15.571 8.008 15.899 8.168 16.107 8.328C16.331 8.488 16.491 8.568 16.587 8.568C16.683 8.568 17.075 8.424 17.763 8.136C17.987 8.04 18.155 7.824 18.267 7.488C18.379 7.152 18.499 6.984 18.627 6.984C18.835 6.984 18.939 7.048 18.939 7.176C18.939 7.56 18.883 7.976 18.771 8.424C18.659 8.856 18.523 9.2 18.363 9.456C18.203 9.696 17.891 9.912 17.427 10.104C17.603 10.584 17.691 10.984 17.691 11.304C17.691 12.328 17.307 13.192 16.539 13.896C15.771 14.6 14.835 14.952 13.731 14.952C13.315 14.952 12.915 14.92 12.531 14.856C12.163 14.776 11.939 14.736 11.859 14.736C11.795 14.736 11.699 14.752 11.571 14.784C11.443 14.816 11.283 14.928 11.091 15.12C10.899 15.312 10.803 15.576 10.803 15.912C10.803 16.456 11.051 16.8 11.547 16.944C12.043 17.088 12.867 17.16 14.019 17.16H15.123C17.443 17.16 18.603 17.864 18.603 19.272C18.603 19.768 18.547 20.144 18.435 20.4C18.131 21.184 17.507 21.808 16.563 22.272C15.619 22.736 14.523 22.968 13.275 22.968C12.555 22.968 11.883 22.896 11.259 22.752ZM10.203 20.184C10.203 20.888 10.499 21.416 11.091 21.768C11.683 22.136 12.443 22.32 13.371 22.32C14.299 22.32 15.155 22.112 15.939 21.696C16.739 21.296 17.139 20.776 17.139 20.136C17.139 19.56 16.859 19.2 16.299 19.056C15.867 18.96 15.259 18.912 14.475 18.912H14.259C13.747 18.912 13.123 18.856 12.387 18.744L11.307 18.576C11.147 18.576 10.923 18.736 10.635 19.056C10.347 19.376 10.203 19.752 10.203 20.184ZM13.443 8.136C12.771 8.136 12.227 8.392 11.811 8.904C11.395 9.4 11.187 10.12 11.187 11.064C11.187 12.008 11.411 12.8 11.859 13.44C12.323 14.08 12.907 14.4 13.611 14.4C14.315 14.4 14.859 14.128 15.243 13.584C15.627 13.024 15.819 12.32 15.819 11.472C15.819 10.624 15.595 9.856 15.147 9.168C14.699 8.48 14.131 8.136 13.443 8.136ZM25.5458 18L23.7938 17.904C23.3778 17.904 22.8258 17.92 22.1378 17.952L21.1058 18C20.8658 18 20.7458 17.928 20.7458 17.784C20.7458 17.64 20.7858 17.552 20.8658 17.52C20.9458 17.488 21.0418 17.464 21.1538 17.448C21.2818 17.432 21.4018 17.384 21.5138 17.304C21.8178 17.112 21.9858 16.536 22.0178 15.576C22.0498 14.6 22.0658 13.96 22.0658 13.656V10.2C22.0658 9.688 21.9698 9.344 21.7778 9.168C21.6018 8.992 21.3538 8.904 21.0338 8.904H20.7938C20.4898 8.904 20.3378 8.816 20.3378 8.64C20.3378 8.48 20.5058 8.376 20.8418 8.328C21.1938 8.28 21.4658 8.232 21.6578 8.184C21.8658 8.12 22.1298 8.024 22.4498 7.896C22.7858 7.752 23.0498 7.632 23.2418 7.536C23.4498 7.44 23.5858 7.392 23.6498 7.392H23.6978C23.8418 7.392 23.9138 7.488 23.9138 7.68L23.8658 8.712C23.8658 9.128 23.8978 9.336 23.9618 9.336C24.0258 9.336 24.0898 9.296 24.1538 9.216C24.3938 8.88 24.7138 8.592 25.1138 8.352C25.8338 7.904 26.5218 7.68 27.1778 7.68C27.8338 7.68 28.4178 7.784 28.9298 7.992C29.4418 8.184 29.8418 8.432 30.1298 8.736C30.4178 9.024 30.6578 9.36 30.8498 9.744C31.1698 10.384 31.3298 11.04 31.3298 11.712V11.952L31.3538 13.224V15.672C31.3538 16.28 31.4338 16.704 31.5938 16.944C31.7698 17.168 32.1778 17.328 32.8177 17.424C33.1378 17.472 33.2978 17.592 33.2978 17.784C33.2978 17.944 33.1378 18.024 32.8177 18.024L30.8498 17.904L29.0018 18C28.6818 18 28.5218 17.896 28.5218 17.688C28.5218 17.544 28.6178 17.448 28.8098 17.4L29.1218 17.328C29.4738 17.216 29.6498 16.68 29.6498 15.72V12.48C29.6498 11.248 29.3458 10.32 28.7378 9.696C28.1298 9.056 27.4418 8.736 26.6738 8.736C25.9058 8.736 25.2658 8.92 24.7538 9.288C24.2418 9.656 23.9298 10 23.8178 10.32C23.7058 10.64 23.6498 11.864 23.6498 13.992V14.904C23.6498 15.704 23.7298 16.296 23.8898 16.68C24.0658 17.064 24.4418 17.28 25.0178 17.328C25.1778 17.328 25.3778 17.36 25.6178 17.424C25.8738 17.472 26.0018 17.56 26.0018 17.688C26.0018 17.896 25.8498 18 25.5458 18ZM37.7574 18.36C35.8694 18.36 34.9254 17.56 34.9254 15.96C34.9254 14.808 35.4054 14.016 36.3654 13.584C37.1654 13.248 38.3894 12.944 40.0374 12.672C40.0854 12.656 40.1494 12.648 40.2294 12.648C40.3094 12.632 40.3894 12.616 40.4694 12.6C40.5654 12.584 40.6374 12.568 40.6854 12.552C40.7974 12.504 40.8534 12.392 40.8534 12.216L40.9014 10.968C40.9014 10.056 40.6374 9.4 40.1094 9C39.5814 8.584 39.0694 8.376 38.5734 8.376C37.4214 8.376 36.8454 8.856 36.8454 9.816L36.9414 10.68C36.9414 11 36.7974 11.16 36.5094 11.16C36.2854 11.16 36.0374 11.12 35.7654 11.04C35.2694 10.88 35.0214 10.608 35.0214 10.224C35.0214 9.6 35.4374 9.008 36.2694 8.448C37.1174 7.872 37.9654 7.584 38.8134 7.584C39.6614 7.584 40.3254 7.664 40.8054 7.824C41.2854 7.984 41.6374 8.168 41.8614 8.376C42.1014 8.568 42.2854 8.832 42.4134 9.168C42.5734 9.568 42.6534 10.2 42.6534 11.064C42.6534 11.912 42.6294 12.672 42.5814 13.344C42.5494 14 42.5334 14.6 42.5334 15.144C42.5334 15.688 42.5974 16.136 42.7254 16.488C42.8534 16.824 43.0054 17.04 43.1814 17.136C43.3574 17.232 43.5334 17.288 43.7094 17.304C44.1414 17.336 44.3574 17.464 44.3574 17.688C44.3574 18.024 43.8534 18.192 42.8454 18.192C42.4294 18.192 42.0694 18.08 41.7654 17.856C41.4774 17.632 41.2694 17.416 41.1414 17.208C41.0134 16.984 40.9414 16.872 40.9254 16.872C40.9094 16.872 40.8454 16.928 40.7334 17.04C40.6214 17.136 40.4614 17.256 40.2534 17.4C40.0614 17.544 39.8374 17.688 39.5814 17.832C38.9894 18.184 38.3814 18.36 37.7574 18.36ZM40.6854 13.008L40.4454 13.056C40.0774 13.12 39.8454 13.16 39.7494 13.176C39.6534 13.192 39.4294 13.24 39.0774 13.32C38.7254 13.4 38.4774 13.472 38.3334 13.536C38.2054 13.6 38.0134 13.704 37.7574 13.848C37.5174 13.976 37.3414 14.112 37.2294 14.256C36.9414 14.704 36.7974 15.176 36.7974 15.672C36.7974 16.168 36.9574 16.584 37.2774 16.92C37.5974 17.24 38.0054 17.4 38.5014 17.4C39.0134 17.4 39.4134 17.336 39.7014 17.208C40.0054 17.08 40.2294 16.936 40.3734 16.776C40.5174 16.616 40.6294 16.4 40.7094 16.128C40.8054 15.824 40.8534 15.432 40.8534 14.952V13.224C40.8534 13.08 40.7974 13.008 40.6854 13.008ZM50.4118 18.504C48.9078 18.504 47.6998 18.048 46.7878 17.136C45.8918 16.224 45.4438 14.992 45.4438 13.44C45.4438 11.872 45.9558 10.528 46.9798 9.408C48.0198 8.272 49.3638 7.704 51.0118 7.704C51.5718 7.704 52.1718 7.784 52.8118 7.944C53.4678 8.104 53.8038 8.288 53.8198 8.496C53.8518 8.88 53.8678 9.344 53.8678 9.888C53.8678 10.416 53.7798 10.68 53.6038 10.68C53.4438 10.68 53.2998 10.576 53.1718 10.368C52.8998 9.904 52.3798 9.504 51.6118 9.168C50.8598 8.816 50.1958 8.64 49.6198 8.64C49.2998 8.64 48.9878 8.76 48.6838 9C48.3798 9.24 48.1318 9.504 47.9398 9.792C47.4758 10.464 47.2438 11.416 47.2438 12.648C47.2438 13.88 47.6358 14.96 48.4198 15.888C49.2198 16.8 50.1958 17.256 51.3478 17.256C51.9078 17.256 52.4278 17.152 52.9078 16.944C53.3878 16.736 53.7558 16.528 54.0118 16.32C54.2838 16.112 54.4518 16.008 54.5158 16.008C54.6918 16.008 54.7798 16.088 54.7798 16.248C54.7798 16.408 54.6118 16.656 54.2758 16.992C53.9398 17.312 53.6118 17.568 53.2918 17.76C52.5078 18.256 51.5478 18.504 50.4118 18.504ZM59.1754 18.096L57.4714 18.144C56.8314 18.144 56.5114 18.04 56.5114 17.832C56.5114 17.608 56.6314 17.456 56.8714 17.376C56.8874 17.376 56.9194 17.368 56.9674 17.352C57.3354 17.224 57.5754 17.032 57.6874 16.776C57.7994 16.52 57.8554 15.28 57.8554 13.056V10.944C57.8554 10.48 57.7994 10.112 57.6874 9.84C57.5754 9.568 57.4714 9.4 57.3754 9.336C57.2794 9.272 57.1114 9.224 56.8714 9.192C56.6474 9.144 56.4794 9.104 56.3674 9.072C56.2714 9.024 56.2234 8.96 56.2234 8.88C56.2234 8.784 56.2394 8.712 56.2714 8.664C56.3194 8.616 56.3994 8.568 56.5114 8.52C56.6394 8.456 56.7674 8.4 56.8954 8.352C57.3434 8.224 57.7114 8.096 57.9994 7.968C58.2874 7.84 58.5034 7.744 58.6474 7.68C58.8074 7.616 58.9114 7.568 58.9594 7.536C59.0714 7.488 59.2074 7.464 59.3674 7.464C59.6074 7.464 59.7274 7.616 59.7274 7.92L59.5834 9.072V15.648C59.5834 16.128 59.6554 16.504 59.7994 16.776C59.9594 17.048 60.1194 17.216 60.2794 17.28C60.4554 17.344 60.6554 17.384 60.8794 17.4C61.1034 17.416 61.2474 17.424 61.3114 17.424C61.5354 17.456 61.6474 17.568 61.6474 17.76C61.6474 18.032 61.5114 18.168 61.2394 18.168L60.8794 18.144L59.1754 18.096ZM58.7674 5.208C58.4474 5.208 58.1674 5.04 57.9274 4.704C57.7034 4.368 57.5914 4.096 57.5914 3.888C57.5914 3.664 57.7274 3.384 57.9994 3.048C58.2874 2.696 58.5514 2.52 58.7914 2.52C59.0474 2.52 59.2954 2.688 59.5354 3.024C59.7754 3.344 59.8954 3.632 59.8954 3.888C59.8954 4.144 59.7434 4.432 59.4394 4.752C59.1354 5.056 58.9114 5.208 58.7674 5.208ZM68.3505 18.432C66.7185 18.432 65.4145 17.912 64.4385 16.872C63.4785 15.816 62.9985 14.56 62.9985 13.104C62.9985 11.648 63.4945 10.376 64.4865 9.288C65.4945 8.2 66.8145 7.656 68.4465 7.656C70.0945 7.656 71.4705 8.128 72.5745 9.072C73.6945 10.016 74.2545 11.328 74.2545 13.008C74.2545 14.688 73.6785 16.016 72.5265 16.992C71.3905 17.952 69.9985 18.432 68.3505 18.432ZM68.0865 8.304C67.2545 8.304 66.5105 8.632 65.8545 9.288C65.2145 9.944 64.8945 11.024 64.8945 12.528C64.8945 14.032 65.3345 15.272 66.2145 16.248C67.0945 17.224 68.0385 17.712 69.0465 17.712C70.0705 17.712 70.8945 17.368 71.5185 16.68C72.1425 15.976 72.4545 14.952 72.4545 13.608C72.4545 12.264 72.0705 11.048 71.3025 9.96C70.5345 8.856 69.4625 8.304 68.0865 8.304Z" fill="white"/>
</svg>
